<?xml version="1.0" standalone="no"?>
<!DOCTYPE svg PUBLIC "-//W3C//DTD SVG 20010904//EN"
 "http://www.w3.org/TR/2001/REC-SVG-20010904/DTD/svg10.dtd">
<svg version="1.0" xmlns="http://www.w3.org/2000/svg"
 width="1140.000000pt" height="218.000000pt" viewBox="0 0 1140.000000 218.000000"
 preserveAspectRatio="xMidYMid meet">

<g transform="translate(0.000000,218.000000) scale(0.100000,-0.100000)"
fill="#000000" stroke="none">
<path d="M678 1816 c-220 -64 -381 -228 -458 -471 -30 -94 -39 -307 -17 -412
32 -149 98 -273 197 -373 214 -213 507 -239 773 -68 26 17 49 29 51 27 2 -2
18 -28 36 -56 17 -29 36 -53 41 -53 5 0 9 99 9 232 0 145 -4 228 -9 223 -6 -6
-24 -49 -41 -97 -75 -215 -195 -330 -373 -359 -179 -29 -347 63 -427 233 -66
142 -98 368 -81 578 24 297 117 482 279 558 51 24 68 27 168 27 107 0 112 -1
186 -38 133 -65 221 -187 259 -359 7 -32 16 -58 21 -58 9 0 9 230 -1 365 -3
50 -10 90 -16 90 -5 0 -21 -21 -34 -46 l-25 -46 -81 38 c-45 21 -108 46 -141
55 -80 22 -255 27 -316 10z"/>
<path d="M3090 1790 c14 -4 43 -9 65 -10 22 -1 48 -5 59 -9 14 -5 82 -182 271
-697 203 -555 256 -690 271 -692 16 -2 53 88 263 650 134 359 253 670 264 690
22 40 56 57 116 59 20 1 50 5 66 9 17 4 -67 8 -185 8 -212 -1 -217 -2 -73 -24
24 -4 34 -11 39 -28 4 -17 -57 -192 -203 -581 -115 -306 -213 -557 -218 -558
-9 -2 -438 1154 -430 1161 2 2 38 8 81 13 42 4 79 11 82 14 3 3 -107 5 -244 4
-140 -1 -238 -4 -224 -9z"/>
<path d="M6152 1352 c-56 -54 -102 -100 -102 -104 0 -5 20 -8 44 -8 l45 0 3
-367 c3 -349 4 -370 23 -403 26 -44 70 -69 134 -77 42 -5 59 -1 106 21 47 24
105 78 105 99 0 4 -21 -7 -47 -23 -81 -51 -143 -39 -182 37 -7 15 -11 131 -11
367 l0 346 110 0 c67 0 110 4 110 10 0 6 -43 10 -110 10 l-110 0 -1 73 c-2
129 0 129 -117 19z"/>
<path d="M1793 1265 c-185 -57 -294 -236 -280 -460 17 -281 221 -457 472 -405
156 32 251 125 300 295 24 83 17 258 -14 335 -65 159 -202 251 -370 249 -36 0
-85 -6 -108 -14z m205 -22 c45 -21 98 -86 122 -149 71 -192 44 -494 -55 -612
-41 -49 -94 -72 -163 -72 -136 0 -221 120 -242 341 -9 100 1 236 24 311 50
168 181 243 314 181z"/>
<path d="M2834 1251 c-34 -16 -80 -45 -102 -65 l-39 -36 -6 56 c-3 31 -8 58
-11 61 -6 7 -188 -54 -211 -71 -15 -11 -12 -14 31 -31 27 -10 55 -22 62 -28 9
-7 12 -90 12 -352 l0 -343 -22 -6 c-13 -3 -34 -6 -48 -6 -14 0 -32 -5 -40 -10
-10 -6 47 -10 170 -10 123 0 180 4 170 10 -8 5 -29 10 -47 10 -67 0 -63 -23
-63 356 l0 344 56 37 c101 67 221 55 269 -27 19 -33 20 -54 23 -364 3 -361 6
-345 -58 -346 -19 0 -42 -5 -50 -10 -10 -6 49 -10 175 -10 126 0 185 4 175 10
-8 5 -31 10 -50 10 -19 0 -40 4 -46 8 -8 5 -13 118 -17 358 -4 286 -8 356 -20
380 -53 102 -188 134 -313 75z"/>
<path d="M4565 1264 c-172 -51 -276 -211 -276 -424 -1 -112 13 -174 54 -253
108 -206 375 -261 531 -110 35 34 96 127 96 147 0 4 -27 -17 -59 -47 -69 -64
-127 -87 -215 -87 -116 0 -203 64 -247 180 -15 39 -23 88 -27 168 l-5 112 282
0 281 0 0 33 c0 48 -25 132 -54 180 -28 49 -83 90 -142 106 -54 15 -159 12
-219 -5z m191 -23 c17 -10 39 -35 48 -56 20 -41 34 -189 20 -197 -5 -3 -96 -9
-201 -13 l-193 -7 0 23 c0 35 27 116 49 153 26 41 80 93 111 105 43 17 132 13
166 -8z"/>
<path d="M5525 1263 c-47 -19 -112 -62 -139 -92 -30 -33 -36 -26 -36 39 0 33
-3 60 -7 60 -20 0 -200 -64 -212 -75 -11 -11 -4 -16 40 -33 l54 -20 3 -348 c2
-271 -1 -349 -10 -356 -7 -4 -29 -8 -48 -8 -19 0 -42 -5 -50 -10 -10 -6 49
-10 175 -10 126 0 185 4 175 10 -8 5 -29 10 -47 10 -67 0 -63 -23 -63 356 l0
343 33 25 c105 80 241 74 292 -14 19 -33 20 -55 23 -366 l4 -331 -24 -6 c-13
-4 -37 -7 -55 -7 -17 0 -35 -4 -38 -10 -4 -7 57 -10 175 -10 118 0 179 3 175
10 -3 5 -21 10 -38 10 -18 0 -42 3 -54 6 l-23 6 0 342 c0 194 -4 356 -10 377
-27 96 -179 149 -295 102z"/>
<path d="M7602 1246 c-51 -18 -98 -38 -103 -43 -7 -7 8 -17 43 -30 l53 -20 3
-353 c2 -276 -1 -355 -10 -362 -7 -4 -29 -8 -48 -8 -19 0 -42 -5 -50 -10 -10
-6 56 -10 195 -10 139 0 205 4 195 10 -8 5 -35 10 -60 10 -25 0 -55 3 -67 6
l-23 6 0 310 c0 287 1 312 20 347 20 41 73 91 95 91 7 0 32 -16 55 -35 47 -40
81 -44 110 -15 23 23 26 76 7 101 -55 72 -159 39 -249 -79 l-43 -57 -3 88 c-2
60 -6 87 -15 86 -7 0 -54 -15 -105 -33z"/>
<path d="M8392 1261 c-167 -62 -263 -213 -263 -416 -1 -104 11 -166 47 -241
93 -197 355 -272 549 -158 131 76 207 255 190 443 -16 173 -96 296 -235 360
-76 35 -211 40 -288 12z m219 -17 c92 -47 144 -154 157 -323 18 -229 -33 -412
-134 -481 -54 -36 -154 -40 -209 -8 -95 56 -144 172 -152 364 -6 137 12 255
52 334 28 55 93 117 132 126 16 3 33 7 38 9 17 6 89 -7 116 -21z"/>
<path d="M6571 1255 c3 -2 30 -8 60 -12 l54 -8 5 -360 c6 -405 5 -401 82 -453
36 -23 52 -27 112 -27 85 1 134 23 213 98 l53 50 0 -49 c0 -27 3 -59 6 -71 7
-25 4 -26 139 37 98 47 98 42 3 64 l-28 6 0 365 0 365 -122 -1 c-77 -1 -114
-4 -98 -9 14 -4 40 -8 58 -9 l32 -1 0 -344 0 -344 -31 -26 c-51 -43 -90 -59
-149 -60 -64 -1 -99 19 -127 74 -16 31 -18 72 -21 378 l-3 342 -121 0 c-67 0
-119 -2 -117 -5z"/>
</g>
</svg>
