<?xml version="1.0" encoding="UTF-8"?>
<!DOCTYPE svg PUBLIC "-//W3C//DTD SVG 1.1//EN" "http://www.w3.org/Graphics/SVG/1.1/DTD/svg11.dtd">
<svg xmlns="http://www.w3.org/2000/svg" version="1.1" width="1148px" height="312px" style="shape-rendering:geometricPrecision; text-rendering:geometricPrecision; image-rendering:optimizeQuality; fill-rule:evenodd; clip-rule:evenodd" xmlns:xlink="http://www.w3.org/1999/xlink">
<g><path style="opacity:1" fill="#534adc" d="M 17.5,25.5 C 387.5,25.5 757.5,25.5 1127.5,25.5C 1127.5,111.833 1127.5,198.167 1127.5,284.5C 757.5,284.5 387.5,284.5 17.5,284.5C 17.5,198.167 17.5,111.833 17.5,25.5 Z"/></g>
<g><path style="opacity:1" fill="#ada7ec" d="M 17.5,25.5 C 387.666,24.5002 758,24.1668 1128.5,24.5C 1128.5,111.5 1128.5,198.5 1128.5,285.5C 758,285.833 387.666,285.5 17.5,284.5C 387.5,284.5 757.5,284.5 1127.5,284.5C 1127.5,198.167 1127.5,111.833 1127.5,25.5C 757.5,25.5 387.5,25.5 17.5,25.5 Z"/></g>
<g><path style="opacity:1" fill="#f7f6f9" d="M 131.5,91.5 C 139.84,91.3336 148.173,91.5003 156.5,92C 163.525,93.3391 170.525,94.8391 177.5,96.5C 180.174,95.4855 182.841,94.4855 185.5,93.5C 185.5,106.167 185.5,118.833 185.5,131.5C 184.325,131.719 183.325,131.386 182.5,130.5C 179.175,123.179 175.341,116.179 171,109.5C 165.592,100.967 157.925,95.9669 148,94.5C 136.724,95.3027 129.058,100.969 125,111.5C 123.798,114.774 122.798,118.107 122,121.5C 120.431,139.799 120.098,158.132 121,176.5C 122,186.83 125,196.497 130,205.5C 139.543,215.725 150.377,217.225 162.5,210C 172.08,201.247 179.08,190.747 183.5,178.5C 184.689,177.571 186.022,177.238 187.5,177.5C 186.673,190.482 186.339,203.482 186.5,216.5C 184.26,214.65 181.594,213.65 178.5,213.5C 166.31,216.194 153.976,217.86 141.5,218.5C 112.667,218.527 94.1669,204.86 86,177.5C 84.4902,165.205 84.1569,152.872 85,140.5C 89.789,113.88 105.289,97.5469 131.5,91.5 Z"/></g>
<g><path style="opacity:1" fill="#f8f7f9" d="M 402.5,93.5 C 421.833,93.5 441.167,93.5 460.5,93.5C 460.5,94.5 460.5,95.5 460.5,96.5C 456.154,96.3343 451.821,96.501 447.5,97C 457.723,125.668 467.556,154.501 477,183.5C 487.649,155.056 497.816,126.389 507.5,97.5C 503.217,96.5078 498.884,96.1744 494.5,96.5C 494.5,95.5 494.5,94.5 494.5,93.5C 503.5,93.5 512.5,93.5 521.5,93.5C 521.5,94.5 521.5,95.5 521.5,96.5C 517.97,95.9889 514.804,96.6556 512,98.5C 498.531,137.908 484.864,177.242 471,216.5C 468.617,217.766 465.95,218.432 463,218.5C 460.5,218.167 458,217.833 455.5,217.5C 440.389,177.609 425.555,137.609 411,97.5C 408.281,96.5562 405.448,96.2229 402.5,96.5C 402.5,95.5 402.5,94.5 402.5,93.5 Z"/></g>
<g><path style="opacity:1" fill="#f7f7f9" d="M 717.5,136.5 C 714.713,135.523 711.713,135.19 708.5,135.5C 708.5,134.5 708.5,133.5 708.5,132.5C 711.5,132.5 714.5,132.5 717.5,132.5C 717.5,124.833 717.5,117.167 717.5,109.5C 728.463,107.009 739.463,104.676 750.5,102.5C 750.5,112.5 750.5,122.5 750.5,132.5C 758.167,132.5 765.833,132.5 773.5,132.5C 773.5,133.833 773.5,135.167 773.5,136.5C 765.833,136.5 758.167,136.5 750.5,136.5C 750.333,158.836 750.5,181.169 751,203.5C 752.596,211.371 757.096,213.538 764.5,210C 770.049,205.069 773.049,198.902 773.5,191.5C 774.5,191.5 775.5,191.5 776.5,191.5C 776.317,202.38 771.65,210.547 762.5,216C 749.728,220.073 737.394,219.073 725.5,213C 721.577,209.323 719.077,204.823 718,199.5C 717.5,178.503 717.333,157.503 717.5,136.5 Z"/></g>
<g><path style="opacity:1" fill="#f8f8f9" d="M 233.5,131.5 C 276.798,126.629 294.965,145.629 288,188.5C 284.602,203.564 275.436,213.064 260.5,217C 247.623,219.615 234.956,218.948 222.5,215C 206.427,206.36 199.094,192.86 200.5,174.5C 200.211,151.379 211.211,137.046 233.5,131.5 Z"/></g>
<g><path style="opacity:1" fill="#f9f8f9" d="M 304.5,136.5 C 301.642,135.834 298.642,135.167 295.5,134.5C 309.15,133.501 322.817,133.167 336.5,133.5C 336.173,138.544 336.506,143.544 337.5,148.5C 338.107,148.376 338.44,148.043 338.5,147.5C 340.576,139.59 345.576,134.423 353.5,132C 361.222,131.188 368.889,131.522 376.5,133C 384.462,136.63 388.962,142.797 390,151.5C 390.5,172.164 390.667,192.831 390.5,213.5C 393.833,213.5 397.167,213.5 400.5,213.5C 400.5,214.5 400.5,215.5 400.5,216.5C 383.833,216.5 367.167,216.5 350.5,216.5C 350.5,215.5 350.5,214.5 350.5,213.5C 353.167,213.5 355.833,213.5 358.5,213.5C 358.667,191.164 358.5,168.831 358,146.5C 356.693,139.575 352.86,137.742 346.5,141C 342.518,145.126 339.685,149.959 338,155.5C 337.5,174.83 337.333,194.164 337.5,213.5C 340.167,213.5 342.833,213.5 345.5,213.5C 345.5,214.5 345.5,215.5 345.5,216.5C 328.5,216.5 311.5,216.5 294.5,216.5C 294.5,215.5 294.5,214.5 294.5,213.5C 297.833,213.5 301.167,213.5 304.5,213.5C 304.5,187.833 304.5,162.167 304.5,136.5 Z"/></g>
<g><path style="opacity:1" fill="#f6f6f9" d="M 544.5,131.5 C 554.642,130.915 564.642,131.748 574.5,134C 583.759,137.591 589.925,144.091 593,153.5C 594.239,159.435 594.739,165.435 594.5,171.5C 578.167,171.5 561.833,171.5 545.5,171.5C 544.377,183.235 545.877,194.569 550,205.5C 553.876,210.808 559.209,213.475 566,213.5C 579.044,212.14 587.378,205.14 591,192.5C 592.183,191.269 593.349,191.269 594.5,192.5C 590.588,207.58 580.922,216.08 565.5,218C 527.503,221.667 509.336,204.5 511,166.5C 514.562,147.44 525.729,135.773 544.5,131.5 Z"/></g>
<g><path style="opacity:1" fill="#f8f8f9" d="M 610.5,213.5 C 611.498,187.672 611.831,161.672 611.5,135.5C 608.167,135.5 604.833,135.5 601.5,135.5C 601.5,134.5 601.5,133.5 601.5,132.5C 615.5,132.5 629.5,132.5 643.5,132.5C 643.334,137.844 643.501,143.177 644,148.5C 644.513,147.473 645.013,146.473 645.5,145.5C 652.945,131.964 664.278,127.464 679.5,132C 689.357,134.876 695.19,141.376 697,151.5C 697.5,172.164 697.667,192.831 697.5,213.5C 700.833,213.5 704.167,213.5 707.5,213.5C 707.5,214.5 707.5,215.5 707.5,216.5C 690.833,216.5 674.167,216.5 657.5,216.5C 657.5,215.5 657.5,214.5 657.5,213.5C 659.833,213.5 662.167,213.5 664.5,213.5C 664.667,190.164 664.5,166.831 664,143.5C 661.324,139.364 657.824,138.531 653.5,141C 648.379,145.74 645.212,151.573 644,158.5C 643.5,176.83 643.333,195.164 643.5,213.5C 646.167,213.5 648.833,213.5 651.5,213.5C 651.5,214.5 651.5,215.5 651.5,216.5C 634.833,216.5 618.167,216.5 601.5,216.5C 601.5,215.5 601.5,214.5 601.5,213.5C 604.5,213.5 607.5,213.5 610.5,213.5 Z"/></g>
<g><path style="opacity:1" fill="#f8f8f9" d="M 893.5,213.5 C 894.498,187.672 894.831,161.672 894.5,135.5C 891.167,135.5 887.833,135.5 884.5,135.5C 884.5,134.5 884.5,133.5 884.5,132.5C 898.5,132.5 912.5,132.5 926.5,132.5C 926.334,137.844 926.501,143.177 927,148.5C 927.513,147.473 928.013,146.473 928.5,145.5C 936.629,130.89 948.296,127.39 963.5,135C 971.5,144.667 971.5,154.333 963.5,164C 957.618,166.808 951.618,167.141 945.5,165C 939.649,160.464 937.982,154.631 940.5,147.5C 942.743,146.526 945.076,146.192 947.5,146.5C 948.664,137.393 944.998,135.226 936.5,140C 932.242,144.348 929.408,149.514 928,155.5C 926.55,174.779 926.05,194.112 926.5,213.5C 930.833,213.5 935.167,213.5 939.5,213.5C 939.5,214.5 939.5,215.5 939.5,216.5C 921.167,216.5 902.833,216.5 884.5,216.5C 884.5,215.5 884.5,214.5 884.5,213.5C 887.5,213.5 890.5,213.5 893.5,213.5 Z"/></g>
<g><path style="opacity:1" fill="#f7f7f9" d="M 1004.5,131.5 C 1052.58,127.418 1070.41,148.751 1058,195.5C 1051.71,208.776 1041.21,216.276 1026.5,218C 986.851,221.35 969.018,203.184 973,163.5C 977.014,146.32 987.514,135.653 1004.5,131.5 Z"/></g>
<g><path style="opacity:1" fill="#ccc9f2" d="M 338.5,147.5 C 338.44,148.043 338.107,148.376 337.5,148.5C 336.506,143.544 336.173,138.544 336.5,133.5C 322.817,133.167 309.15,133.501 295.5,134.5C 298.642,135.167 301.642,135.834 304.5,136.5C 301.167,136.5 297.833,136.5 294.5,136.5C 294.5,135.167 294.5,133.833 294.5,132.5C 308.833,132.5 323.167,132.5 337.5,132.5C 337.179,137.695 337.513,142.695 338.5,147.5 Z"/></g>
<g><path style="opacity:1" fill="#9791e8" d="M 643.5,132.5 C 644.167,136.833 644.833,141.167 645.5,145.5C 645.013,146.473 644.513,147.473 644,148.5C 643.501,143.177 643.334,137.844 643.5,132.5 Z"/></g>
<g><path style="opacity:1" fill="#f9f9f9" d="M 776.5,133.5 C 790.5,133.5 804.5,133.5 818.5,133.5C 818.169,155.673 818.503,177.673 819.5,199.5C 819.931,211.133 824.765,213.466 834,206.5C 836.285,202.813 837.452,198.813 837.5,194.5C 838.497,175.007 838.83,155.34 838.5,135.5C 835.302,136.036 832.635,135.369 830.5,133.5C 843.833,133.5 857.167,133.5 870.5,133.5C 870.169,160.339 870.502,187.005 871.5,213.5C 874.5,213.5 877.5,213.5 880.5,213.5C 880.5,214.5 880.5,215.5 880.5,216.5C 867.167,216.5 853.833,216.5 840.5,216.5C 840.303,212.63 839.469,208.963 838,205.5C 834.329,213.259 828.162,217.426 819.5,218C 801.973,221.338 791.139,214.505 787,197.5C 786.5,177.169 786.333,156.836 786.5,136.5C 783.167,136.5 779.833,136.5 776.5,136.5C 776.5,135.5 776.5,134.5 776.5,133.5 Z"/></g>
<g><path style="opacity:1" fill="#c8c4f0" d="M 776.5,133.5 C 790.657,132.504 804.99,132.171 819.5,132.5C 819.5,154.833 819.5,177.167 819.5,199.5C 818.503,177.673 818.169,155.673 818.5,133.5C 804.5,133.5 790.5,133.5 776.5,133.5 Z"/></g>
<g><path style="opacity:1" fill="#bab5ee" d="M 830.5,133.5 C 830.5,133.167 830.5,132.833 830.5,132.5C 844.167,132.5 857.833,132.5 871.5,132.5C 871.5,159.5 871.5,186.5 871.5,213.5C 870.502,187.005 870.169,160.339 870.5,133.5C 857.167,133.5 843.833,133.5 830.5,133.5 Z"/></g>
<g><path style="opacity:1" fill="#8d85e6" d="M 926.5,132.5 C 927.167,136.833 927.833,141.167 928.5,145.5C 928.013,146.473 927.513,147.473 927,148.5C 926.501,143.177 926.334,137.844 926.5,132.5 Z"/></g>
<g><path style="opacity:1" fill="#574ddc" d="M 241.5,134.5 C 250.33,134.069 254.83,138.403 255,147.5C 255.882,167.528 255.548,187.528 254,207.5C 250.719,216.009 245.386,217.676 238,212.5C 235.225,207.544 233.892,202.21 234,196.5C 233.333,181.833 233.333,167.167 234,152.5C 233.711,145.165 236.211,139.165 241.5,134.5 Z"/></g>
<g><path style="opacity:1" fill="#584edc" d="M 551.5,134.5 C 556.772,133.549 560.272,135.549 562,140.5C 563.346,149.441 563.846,158.441 563.5,167.5C 557.5,167.5 551.5,167.5 545.5,167.5C 545.334,159.493 545.5,151.493 546,143.5C 546.837,139.843 548.67,136.843 551.5,134.5 Z"/></g>
<g><path style="opacity:1" fill="#544bdc" d="M 1013.5,134.5 C 1017.52,133.9 1021.02,134.9 1024,137.5C 1025.97,141.232 1026.97,145.232 1027,149.5C 1027.91,168.867 1027.57,188.201 1026,207.5C 1023.47,215.535 1018.47,217.535 1011,213.5C 1009.47,210.583 1008.14,207.583 1007,204.5C 1006.33,185.167 1006.33,165.833 1007,146.5C 1007.4,141.393 1009.57,137.393 1013.5,134.5 Z"/></g>
<g><path style="opacity:1" fill="#a49eea" d="M 708.5,132.5 C 708.5,133.5 708.5,134.5 708.5,135.5C 711.713,135.19 714.713,135.523 717.5,136.5C 714.167,136.5 710.833,136.5 707.5,136.5C 707.232,134.901 707.566,133.568 708.5,132.5 Z"/></g>
<g><path style="opacity:1" fill="#9b95e9" d="M 601.5,135.5 C 604.833,135.5 608.167,135.5 611.5,135.5C 611.831,161.672 611.498,187.672 610.5,213.5C 610.5,187.833 610.5,162.167 610.5,136.5C 607.287,136.81 604.287,136.477 601.5,135.5 Z"/></g>
<g><path style="opacity:1" fill="#827ae4" d="M 830.5,132.5 C 830.5,132.833 830.5,133.167 830.5,133.5C 832.635,135.369 835.302,136.036 838.5,135.5C 838.83,155.34 838.497,175.007 837.5,194.5C 837.5,175.167 837.5,155.833 837.5,136.5C 834.833,136.5 832.167,136.5 829.5,136.5C 829.232,134.901 829.566,133.568 830.5,132.5 Z"/></g>
<g><path style="opacity:1" fill="#a29cea" d="M 884.5,135.5 C 887.833,135.5 891.167,135.5 894.5,135.5C 894.831,161.672 894.498,187.672 893.5,213.5C 893.5,187.833 893.5,162.167 893.5,136.5C 890.287,136.81 887.287,136.477 884.5,135.5 Z"/></g>
</svg>
